<svg xmlns="http://www.w3.org/2000/svg" width="12.857" height="20"><defs><linearGradient id="a" y1=".42" x2="1" y2=".42" gradientUnits="objectBoundingBox"><stop offset="0" stop-color="#ee0979"/><stop offset="1" stop-color="#ff6a00"/></linearGradient></defs><path d="M121.061 39.679h3.239a.548.548 0 00.554-.527.536.536 0 00-.536-.545h-3.259a.536.536 0 01-.536-.545.548.548 0 01.554-.527h3.415a.355.355 0 00.357-.366 5.375 5.375 0 00-3.246-4.732.357.357 0 00-.5.326v1.585a.548.548 0 01-.527.554.536.536 0 01-.545-.536v-1.83a.536.536 0 00-1.071 0v2.527a.548.548 0 01-.527.554.536.536 0 01-.545-.536v-2.545a.536.536 0 00-1.071 0v1.813a.548.548 0 01-.527.554.536.536 0 01-.545-.536v-1.6a.356.356 0 00-.5-.326A5.372 5.372 0 00112 37.17a.355.355 0 00.357.366h3.415a.548.548 0 01.554.527.536.536 0 01-.536.545h-3.241a.548.548 0 00-.554.527.536.536 0 00.536.545h3.241a.548.548 0 01.554.527.536.536 0 01-.536.545h-3.241a.548.548 0 00-.554.527.536.536 0 00.536.545h3.241a.548.548 0 01.554.527.536.536 0 01-.536.545h-3.43a.355.355 0 00-.357.366 5.44 5.44 0 00.353 1.732.353.353 0 00.33.223h11.478a.35.35 0 00.33-.223 5.207 5.207 0 00.353-1.732.355.355 0 00-.357-.366h-3.415a.548.548 0 01-.554-.527.536.536 0 01.536-.545h3.243a.548.548 0 00.554-.527.536.536 0 00-.536-.545h-3.241a.536.536 0 11-.013-1.071zm-7.746 6.9a5.264 5.264 0 003.366 1.821.36.36 0 01.317.353v1.817a1.429 1.429 0 102.857 0v-1.816a.354.354 0 01.317-.353 5.213 5.213 0 003.366-1.821.18.18 0 00-.138-.295h-9.95a.178.178 0 00-.134.295z" transform="translate(-111.999 -32)" fill="url(#a)"/></svg>