<svg xmlns="http://www.w3.org/2000/svg" viewBox="0 0 45 45"><linearGradient id="a" gradientUnits="userSpaceOnUse" x1="-645.333" y1="398.478" x2="-644.333" y2="398.478" gradientTransform="matrix(45.0002 0 0 -45 29040.15 17954)"><stop offset="0" stop-color="#ee0979"/><stop offset="1" stop-color="#ff6a00"/></linearGradient><path d="M22.5 0C29 0 35.1 2.8 39.4 7.7 43 11.8 45 17 45 22.5 45 34.9 34.9 45 22.5 45S0 34.9 0 22.5 10.1 0 22.5 0z" fill="url(#a)"/><path d="M22.5 20.7c-1.5 0-2.7 1.2-2.7 2.7 0 1.5 1.2 2.7 2.7 2.7 1.5 0 2.7-1.2 2.7-2.7 0-1.5-1.2-2.7-2.7-2.7zm8.1 2.7c0-4.5-3.6-8.2-8.1-8.2s-8.2 3.6-8.2 8.1c0 2.9 1.5 5.6 4.1 7.1l1.4-2.3c-1.7-.9-2.7-2.7-2.7-4.6 0-3 2.5-5.4 5.5-5.3 2.9 0 5.3 2.4 5.3 5.3 0 1.9-1 3.7-2.7 4.6l1.3 2.3c2.6-1.5 4.1-4.1 4.1-7zM22.5 10C15.1 10 9 16 9 23.4c0 4.8 2.6 9.2 6.8 11.6l1.4-2.3c-3.3-1.9-5.4-5.4-5.4-9.3 0-6 4.9-10.8 10.8-10.8 6 0 10.8 4.9 10.8 10.8 0 3.8-2.1 7.4-5.4 9.2l1.4 2.4c4.2-2.4 6.8-6.8 6.8-11.6C36 16 29.9 10 22.5 10z" fill="#111625"/></svg>