<svg xmlns="http://www.w3.org/2000/svg" viewBox="0 0 100 125"><path d="M83 48.7L49 28.3c-.6-.4-1.4-.4-2 0s-1 1-1 1.7v16.9L15 28.3c-.6-.4-1.4-.4-2 0s-1 1-1 1.7v40.8c0 .7.4 1.4 1 1.7.3.2.6.3 1 .3s.7-.1 1-.3l31-18.6v16.9c0 .7.4 1.4 1 1.7.3.2.6.3 1 .3s.7-.1 1-.3l34-20.4c.6-.4 1-1 1-1.7s-.4-1.4-1-1.7zM16 67.3V33.5l28.1 16.9zm34 0V33.5l28.1 16.9zm36-38.1c-1.1 0-2 .9-2 2v38.4c0 1.1.9 2 2 2s2-.9 2-2V31.2c0-1.1-.9-2-2-2z"/><text y="115" font-size="5" font-weight="bold" font-family="'Helvetica Neue', Helvetica, Arial-Unicode, Arial, Sans-serif">Created by Thomas Le Bas</text><text y="120" font-size="5" font-weight="bold" font-family="'Helvetica Neue', Helvetica, Arial-Unicode, Arial, Sans-serif">from the Noun Project</text></svg>