<svg xmlns="http://www.w3.org/2000/svg" enable-background="new 0 0 100 100" viewBox="0 0 100 125" x="0px" y="0px"><path d="m83 48.7-34-20.4c-.6-.4-1.4-.4-2 0s-1 1-1 1.7v16.9l-31-18.6c-.6-.4-1.4-.4-2 0s-1 1-1 1.7v40.8c0 .7.4 1.4 1 1.7.3.2.6.3 1 .3s.7-.1 1-.3l31-18.6v16.9c0 .7.4 1.4 1 1.7.3.2.6.3 1 .3s.7-.1 1-.3l34-20.4c.6-.4 1-1 1-1.7s-.4-1.4-1-1.7zm-67 18.6v-33.8l28.1 16.9zm34 0v-33.8l28.1 16.9z"/><path d="m86 29.2c-1.1 0-2 .9-2 2v19.2 19.2c0 1.1.9 2 2 2s2-.9 2-2v-38.4c0-1.1-.9-2-2-2z"/><text x="0" y="115" fill="#000000" font-size="5px" font-weight="bold" font-family="'Helvetica Neue', Helvetica, Arial-Unicode, Arial, Sans-serif">Created by Thomas Le Bas</text><text x="0" y="120" fill="#000000" font-size="5px" font-weight="bold" font-family="'Helvetica Neue', Helvetica, Arial-Unicode, Arial, Sans-serif">from the Noun Project</text></svg>